ffmpeg started on 2016-11-26 at 10:37:31
Report written to "Output/NVENCh264/results/ffmpeg/crowd_run_2160p50ll2500k.log"
Command line:
Tools/ffmpeg/ffmpeg -benchmark -y -i Input/y4m/crowd_run_2160p50.y4m -c:v h264_nvenc -preset ll -b:v 2500k -an Output/NVENCh264/encoded/crowd_run_2160p50ll2500k.mkv
ffmpeg version N-82227-gdb23fde Copyright (c) 2000-2016 the FFmpeg developers
  built with gcc 5.4.0 (Ubuntu 5.4.0-6ubuntu1~16.04.2) 20160609
  configuration: --prefix=/home/jaroslav/ffmpeg_build --pkg-config-flags=--static --extra-cflags=-I/home/jaroslav/ffmpeg_build/include --extra-ldflags=-L/home/jaroslav/ffmpeg_build/lib --bindir=/home/jaroslav/bin --enable-gpl --enable-libass --enable-libfdk-aac --enable-libfreetype --enable-libmp3lame --enable-libopus --enable-libtheora --enable-libvorbis --enable-libvpx --enable-libx264 --enable-libx265 --enable-nvenc --enable-libmfx --enable-libxvid --enable-libgsm --enable-libopencore-amrnb --enable-version3 --enable-nonfree
  libavutil      55. 35.100 / 55. 35.100
  libavcodec     57. 66.101 / 57. 66.101
  libavformat    57. 57.100 / 57. 57.100
  libavdevice    57.  2.100 / 57.  2.100
  libavfilter     6. 66.100 /  6. 66.100
  libswscale      4.  3.100 /  4.  3.100
  libswresample   2.  4.100 /  2.  4.100
  libpostproc    54.  2.100 / 54.  2.100
Input #0, yuv4mpegpipe, from 'Input/y4m/crowd_run_2160p50.y4m':
  Duration: 00:00:10.00, start: 0.000000, bitrate: 4976642 kb/s
    Stream #0:0: Video: rawvideo (I420 / 0x30323449), yuv420p(progressive), 3840x2160, SAR 1:1 DAR 16:9, 50 fps, 50 tbr, 50 tbn, 50 tbc
[h264_nvenc @ 0x3d7a1c0] The variable bitrate rate-control requires the 'qmin' and/or 'qmax' option set.
Output #0, matroska, to 'Output/NVENCh264/encoded/crowd_run_2160p50ll2500k.mkv':
  Metadata:
    encoder         : Lavf57.57.100
    Stream #0:0: Video: h264 (h264_nvenc) (Main) (H264 / 0x34363248), yuv420p, 3840x2160 [SAR 1:1 DAR 16:9], q=-1--1, 2500 kb/s, 50 fps, 1k tbn, 50 tbc
    Metadata:
      encoder         : Lavc57.66.101 h264_nvenc
    Side data:
      cpb: bitrate max/min/avg: 0/0/2500000 buffer size: 5000000 vbv_delay: -1
Stream mapping:
  Stream #0:0 -> #0:0 (rawvideo (native) -> h264 (h264_nvenc))
Press [q] to stop, [?] for help
frame=   13 fps=0.0 q=0.0 size=       0kB time=00:00:00.00 bitrate=N/A speed=   0x    frame=   16 fps= 12 q=0.0 size=       0kB time=00:00:00.00 bitrate=N/A speed=   0x    frame=   25 fps= 12 q=0.0 size=       0kB time=00:00:00.00 bitrate=N/A speed=   0x    frame=   29 fps= 11 q=0.0 size=       0kB time=00:00:00.00 bitrate=N/A speed=   0x    frame=   33 fps= 11 q=49.0 size=       1kB time=00:00:00.04 bitrate= 145.8kbits/s speed=0.0131x    frame=   37 fps=6.7 q=49.0 size=       1kB time=00:00:00.12 bitrate=  49.4kbits/s speed=0.0219x    frame=   38 fps=4.1 q=49.0 size=       1kB time=00:00:00.14 bitrate=  42.4kbits/s speed=0.0151x    frame=   41 fps=4.0 q=49.0 size=       1kB time=00:00:00.20 bitrate=  29.7kbits/s speed=0.0197x    frame=   42 fps=3.8 q=49.0 size=       1kB time=00:00:00.22 bitrate=  27.0kbits/s speed=0.0202x    frame=   43 fps=3.7 q=49.0 size=       1kB time=00:00:00.24 bitrate=  24.8kbits/s speed=0.0207x    frame=   46 fps=3.7 q=49.0 size=       1kB time=00:00:00.30 bitrate=  19.9kbits/s speed=0.0244x    frame=   47 fps=3.6 q=49.0 size=       1kB time=00:00:00.32 bitrate=  18.6kbits/s speed=0.0249x    frame=   49 fps=3.5 q=49.0 size=       1kB time=00:00:00.36 bitrate=  16.6kbits/s speed=0.0258x    frame=   51 fps=3.4 q=49.0 size=       1kB time=00:00:00.40 bitrate=  14.9kbits/s speed=0.0267x    frame=   53 fps=3.3 q=49.0 size=       1kB time=00:00:00.44 bitrate=  13.6kbits/s speed=0.0278x    frame=   55 fps=3.3 q=49.0 size=       1kB time=00:00:00.48 bitrate=  12.4kbits/s speed=0.029x    frame=   57 fps=3.3 q=49.0 size=       1kB time=00:00:00.52 bitrate=  11.5kbits/s speed=0.0299x    frame=   59 fps=3.2 q=49.0 size=       1kB time=00:00:00.56 bitrate=  10.7kbits/s speed=0.0305x    frame=   60 fps=3.2 q=49.0 size=       1kB time=00:00:00.58 bitrate=  10.3kbits/s speed=0.0306x    frame=   62 fps=3.1 q=49.0 size=       1kB time=00:00:00.62 bitrate=   9.6kbits/s speed=0.0311x    frame=   63 fps=3.0 q=49.0 size=       1kB time=00:00:00.64 bitrate=   9.3kbits/s speed=0.0309x    frame=   66 fps=3.1 q=49.0 size=       1kB time=00:00:00.70 bitrate=   8.5kbits/s speed=0.0325x    frame=   68 fps=3.1 q=49.0 size=       1kB time=00:00:00.74 bitrate=   8.1kbits/s speed=0.0334x    frame=   70 fps=3.1 q=49.0 size=       1kB time=00:00:00.78 bitrate=   7.7kbits/s speed=0.0343x    frame=   72 fps=3.1 q=49.0 size=       1kB time=00:00:00.82 bitrate=   7.3kbits/s speed=0.0351x    frame=   73 fps=3.0 q=49.0 size=       1kB time=00:00:00.84 bitrate=   7.1kbits/s speed=0.0351x    frame=   74 fps=3.0 q=49.0 size=       1kB time=00:00:00.86 bitrate=   6.9kbits/s speed=0.0351x    frame=   75 fps=3.0 q=49.0 size=       1kB time=00:00:00.88 bitrate=   6.8kbits/s speed=0.0352x    frame=   76 fps=3.0 q=49.0 size=       1kB time=00:00:00.90 bitrate=   6.6kbits/s speed=0.035x    frame=   78 fps=2.9 q=49.0 size=       1kB time=00:00:00.94 bitrate=   6.4kbits/s speed=0.0352x    frame=   82 fps=3.0 q=49.0 size=       1kB time=00:00:01.02 bitrate=   5.9kbits/s speed=0.0371x    frame=   83 fps=3.0 q=49.0 size=       1kB time=00:00:01.04 bitrate=   5.7kbits/s speed=0.0371x    frame=   84 fps=2.9 q=49.0 size=       1kB time=00:00:01.06 bitrate=   5.6kbits/s speed=0.0369x    frame=   87 fps=2.9 q=49.0 size=       1kB time=00:00:01.12 bitrate=   5.3kbits/s speed=0.0378x    frame=   90 fps=3.0 q=49.0 size=       1kB time=00:00:01.18 bitrate=   5.1kbits/s speed=0.0388x    frame=   92 fps=2.9 q=49.0 size=       1kB time=00:00:01.22 bitrate=   4.9kbits/s speed=0.0391x    frame=   93 fps=2.9 q=49.0 size=       1kB time=00:00:01.24 bitrate=   4.8kbits/s speed=0.0392x    frame=   97 fps=3.0 q=49.0 size=       1kB time=00:00:01.32 bitrate=   4.5kbits/s speed=0.041x    frame=   99 fps=3.0 q=49.0 size=       1kB time=00:00:01.36 bitrate=   4.4kbits/s speed=0.0408x    frame=  100 fps=3.0 q=49.0 size=       1kB time=00:00:01.38 bitrate=   4.3kbits/s speed=0.0408x    frame=  101 fps=2.9 q=49.0 size=       1kB time=00:00:01.40 bitrate=   4.3kbits/s speed=0.0405x    frame=  102 fps=2.9 q=49.0 size=       1kB time=00:00:01.42 bitrate=   4.2kbits/s speed=0.0404x    frame=  103 fps=2.8 q=49.0 size=       1kB time=00:00:01.44 bitrate=   4.1kbits/s speed=0.0398x    frame=  108 fps=2.9 q=49.0 size=       1kB time=00:00:01.54 bitrate=   3.9kbits/s speed=0.0414x    frame=  110 fps=2.9 q=49.0 size=       1kB time=00:00:01.58 bitrate=   3.8kbits/s speed=0.0418x    frame=  114 fps=3.0 q=49.0 size=       1kB time=00:00:01.66 bitrate=   3.6kbits/s speed=0.0431x    frame=  116 fps=2.9 q=49.0 size=       1kB time=00:00:01.70 bitrate=   3.5kbits/s speed=0.043x    frame=  118 fps=2.9 q=49.0 size=       1kB time=00:00:01.74 bitrate=   3.4kbits/s speed=0.043x    frame=  121 fps=2.9 q=49.0 size=       1kB time=00:00:01.80 bitrate=   3.3kbits/s speed=0.0431x    frame=  124 fps=2.9 q=49.0 size=       1kB time=00:00:01.86 bitrate=   3.2kbits/s speed=0.044x    frame=  126 fps=2.9 q=49.0 size=       1kB time=00:00:01.90 bitrate=   3.1kbits/s speed=0.044x    frame=  127 fps=2.9 q=49.0 size=       1kB time=00:00:01.92 bitrate=   3.1kbits/s speed=0.0436x    frame=  128 fps=2.9 q=49.0 size=       1kB time=00:00:01.94 bitrate=   3.1kbits/s speed=0.0435x    frame=  130 fps=2.9 q=49.0 size=       1kB time=00:00:01.98 bitrate=   3.0kbits/s speed=0.0438x    frame=  132 fps=2.9 q=49.0 size=       1kB time=00:00:02.02 bitrate=   3.0kbits/s speed=0.044x    frame=  133 fps=2.9 q=49.0 size=       1kB time=00:00:02.04 bitrate=   2.9kbits/s speed=0.0439x    frame=  135 fps=2.9 q=49.0 size=       1kB time=00:00:02.08 bitrate=   2.9kbits/s speed=0.044x    frame=  137 fps=2.9 q=49.0 size=       1kB time=00:00:02.12 bitrate=   2.8kbits/s speed=0.0444x    frame=  138 fps=2.9 q=49.0 size=       1kB time=00:00:02.14 bitrate=   2.8kbits/s speed=0.0443x    frame=  139 fps=2.8 q=49.0 size=       1kB time=00:00:02.16 bitrate=   2.8kbits/s speed=0.0442x    frame=  141 fps=2.8 q=49.0 size=       1kB time=00:00:02.20 bitrate=   2.7kbits/s speed=0.0442x    frame=  143 fps=2.8 q=49.0 size=       1kB time=00:00:02.24 bitrate=   2.7kbits/s speed=0.0443x    frame=  144 fps=2.8 q=49.0 size=       1kB time=00:00:02.26 bitrate=   2.6kbits/s speed=0.0442x    frame=  146 fps=2.8 q=49.0 size=       1kB time=00:00:02.30 bitrate=   2.6kbits/s speed=0.0446x    frame=  149 fps=2.8 q=49.0 size=       1kB time=00:00:02.36 bitrate=   2.5kbits/s speed=0.0451x    frame=  154 fps=2.9 q=49.0 size=       1kB time=00:00:02.46 bitrate=   2.4kbits/s speed=0.0465x    frame=  171 fps=3.2 q=49.0 size=       1kB time=00:00:02.80 bitrate=   2.1kbits/s speed=0.0524x    frame=  177 fps=3.3 q=49.0 size=       1kB time=00:00:02.92 bitrate=   2.0kbits/s speed=0.0541x    frame=  179 fps=3.3 q=49.0 size=       1kB time=00:00:02.96 bitrate=   2.0kbits/s speed=0.0543x    frame=  181 fps=3.3 q=49.0 size=       1kB time=00:00:03.00 bitrate=   2.0kbits/s speed=0.0544x    frame=  182 fps=3.3 q=49.0 size=       1kB time=00:00:03.02 bitrate=   2.0kbits/s speed=0.0541x    frame=  187 fps=3.3 q=49.0 size=       1kB time=00:00:03.12 bitrate=   1.9kbits/s speed=0.0552x    frame=  189 fps=3.3 q=49.0 size=       1kB time=00:00:03.16 bitrate=   1.9kbits/s speed=0.0553x    frame=  191 fps=3.3 q=49.0 size=       1kB time=00:00:03.20 bitrate=   1.9kbits/s speed=0.0555x    frame=  196 fps=3.3 q=49.0 size=       1kB time=00:00:03.30 bitrate=   1.8kbits/s speed=0.0564x    frame=  199 fps=3.4 q=49.0 size=       1kB time=00:00:03.36 bitrate=   1.8kbits/s speed=0.0567x    frame=  202 fps=3.4 q=49.0 size=       1kB time=00:00:03.42 bitrate=   1.7kbits/s speed=0.0569x    frame=  213 fps=3.5 q=49.0 size=       1kB time=00:00:03.64 bitrate=   1.6kbits/s speed=0.0599x    frame=  218 fps=3.6 q=49.0 size=       1kB time=00:00:03.74 bitrate=   1.6kbits/s speed=0.061x    frame=  219 fps=3.5 q=49.0 size=       1kB time=00:00:03.76 bitrate=   1.6kbits/s speed=0.0608x    frame=  220 fps=3.5 q=49.0 size=       1kB time=00:00:03.78 bitrate=   1.6kbits/s speed=0.0606x    frame=  225 fps=3.6 q=49.0 size=       1kB time=00:00:03.88 bitrate=   1.5kbits/s speed=0.0617x    frame=  242 fps=3.8 q=49.0 size=       1kB time=00:00:04.22 bitrate=   1.4kbits/s speed=0.0666x    frame=  260 fps=4.1 q=49.0 size=       1kB time=00:00:04.58 bitrate=   1.3kbits/s speed=0.0716x    frame=  278 fps=4.3 q=49.0 size=       1kB time=00:00:04.94 bitrate=   1.2kbits/s speed=0.0766x    frame=  295 fps=4.5 q=49.0 size=    3062kB time=00:00:05.28 bitrate=4750.2kbits/s speed=0.0813x    frame=  313 fps=4.8 q=49.0 size=    3062kB time=00:00:05.64 bitrate=4447.1kbits/s speed=0.0861x    frame=  331 fps=5.0 q=49.0 size=    3062kB time=00:00:06.00 bitrate=4180.3kbits/s speed=0.0909x    frame=  349 fps=5.2 q=49.0 size=    3062kB time=00:00:06.36 bitrate=3943.7kbits/s speed=0.0956x    frame=  367 fps=5.5 q=49.0 size=    3062kB time=00:00:06.72 bitrate=3732.5kbits/s speed= 0.1x    frame=  385 fps=5.7 q=49.0 size=    3062kB time=00:00:07.08 bitrate=3542.7kbits/s speed=0.105x    frame=  403 fps=5.9 q=49.0 size=    3062kB time=00:00:07.44 bitrate=3371.3kbits/s speed=0.109x    frame=  411 fps=6.0 q=49.0 size=    3062kB time=00:00:07.60 bitrate=3300.4kbits/s speed=0.111x    frame=  429 fps=6.2 q=49.0 size=    3062kB time=00:00:07.96 bitrate=3151.1kbits/s speed=0.115x    frame=  447 fps=6.4 q=49.0 size=    3062kB time=00:00:08.32 bitrate=3014.8kbits/s speed=0.119x    frame=  465 fps=6.6 q=49.0 size=    3062kB time=00:00:08.68 bitrate=2889.8kbits/s speed=0.124x    frame=  483 fps=6.8 q=49.0 size=    3062kB time=00:00:09.04 bitrate=2774.7kbits/s speed=0.128x    frame=  500 fps=7.0 q=49.0 size=    3062kB time=00:00:09.38 bitrate=2674.1kbits/s speed=0.132x    frame=  500 fps=7.0 q=49.0 Lsize=    6305kB time=00:00:09.98 bitrate=5174.8kbits/s speed=0.14x    
video:6301kB audio:0kB subtitle:0kB other streams:0kB global headers:0kB muxing overhead: 0.067423%
bench: utime=1.472s
bench: maxrss=1396652kB
